# Blender v2.80 (sub 75) OBJ File: 'Wedge.blend'
# www.blender.org
mtllib Wedge.mtl
o Cube
v 1.000000 -1.000000 -1.000000
v 1.000000 -1.000000 1.000000
v -1.000000 1.000000 -1.000000
v -1.000000 -1.000000 -1.000000
v -1.000000 1.000000 1.000000
v -1.000000 -1.000000 1.000000
vt 0.322915 0.489271
vt 0.106863 0.273219
vt 0.322915 0.057167
vt 0.080662 0.269313
vt 0.282649 0.067326
vt 0.282649 0.471300
vt 0.498473 0.001527
vt 0.498473 0.498473
vt 0.001527 0.498473
vt 0.001527 0.001527
vt 0.454949 0.052427
vt 0.454949 0.465795
vt 0.041204 0.466172
vt 0.041204 0.052427
vt 0.000438 0.999675
vt 0.000438 0.500552
vt 0.499562 0.500097
vt 0.499562 0.999675
vn 0.0000 0.0000 1.0000
vn 0.0000 0.0000 -1.0000
vn -1.0000 0.0000 0.0000
vn 0.0000 -1.0000 0.0000
vn 0.7071 0.7071 0.0000
usemtl Material
s off
f 5/1/1 6/2/1 2/3/1
f 4/4/2 3/5/2 1/6/2
f 6/7/3 5/8/3 3/9/3 4/10/3
f 4/11/4 1/12/4 2/13/4 6/14/4
f 5/15/5 2/16/5 1/17/5 3/18/5
